<mxfile host="app.diagrams.net" agent="Mozilla/5.0 (Windows NT 10.0; Win64; x64) AppleWebKit/537.36 (KHTML, like Gecko) Chrome/131.0.0.0 Safari/537.36 OPR/116.0.0.0" version="26.0.14">
  <diagram name="PÃ¡gina-1" id="THV_jR3SFHk6CQtBX6WG">
    <mxGraphModel dx="2186" dy="1759" grid="1" gridSize="10" guides="1" tooltips="1" connect="1" arrows="1" fold="1" page="0" pageScale="1" pageWidth="827" pageHeight="1169" background="none" math="0" shadow="0">
      <root>
        <mxCell id="0" />
        <mxCell id="1" parent="0" />
        <mxCell id="6sBdYNOKg4DvN8dYeQ6p-444" value="" style="verticalLabelPosition=bottom;html=1;verticalAlign=top;align=center;shape=mxgraph.floorplan.room;fillColor=strokeColor;rotation=-90;" parent="1" vertex="1">
          <mxGeometry x="-1535" y="-325" width="980" height="10" as="geometry" />
        </mxCell>
        <mxCell id="6sBdYNOKg4DvN8dYeQ6p-445" value="" style="verticalLabelPosition=bottom;html=1;verticalAlign=top;align=center;shape=mxgraph.floorplan.room;fillColor=strokeColor;rotation=90;" parent="1" vertex="1">
          <mxGeometry x="-777.5" y="-112.5" width="10" height="555" as="geometry" />
        </mxCell>
        <mxCell id="6sBdYNOKg4DvN8dYeQ6p-446" value="" style="verticalLabelPosition=bottom;html=1;verticalAlign=top;align=center;shape=mxgraph.floorplan.room;fillColor=strokeColor;rotation=90;" parent="1" vertex="1">
          <mxGeometry x="-445" y="-1415" width="10" height="1220" as="geometry" />
        </mxCell>
        <mxCell id="6sBdYNOKg4DvN8dYeQ6p-447" value="" style="verticalLabelPosition=bottom;html=1;verticalAlign=top;align=center;shape=mxgraph.floorplan.room;fillColor=strokeColor;rotation=-90;" parent="1" vertex="1">
          <mxGeometry x="-325" y="-325" width="980" height="10" as="geometry" />
        </mxCell>
        <mxCell id="6sBdYNOKg4DvN8dYeQ6p-448" value="" style="verticalLabelPosition=bottom;html=1;verticalAlign=top;align=center;shape=mxgraph.floorplan.doorUneven;dx=0.5;" parent="1" vertex="1">
          <mxGeometry x="-495" y="160" width="115" height="50" as="geometry" />
        </mxCell>
        <mxCell id="6sBdYNOKg4DvN8dYeQ6p-470" value="" style="verticalLabelPosition=bottom;html=1;verticalAlign=top;align=center;shape=mxgraph.floorplan.chair;strokeColor=default;fontFamily=Helvetica;fontSize=12;fontColor=default;fillColor=default;rotation=-180;" parent="1" vertex="1">
          <mxGeometry x="-355" y="120" width="30" height="40" as="geometry" />
        </mxCell>
        <mxCell id="6sBdYNOKg4DvN8dYeQ6p-471" value="" style="verticalLabelPosition=bottom;html=1;verticalAlign=top;align=center;shape=mxgraph.floorplan.chair;strokeColor=default;fontFamily=Helvetica;fontSize=12;fontColor=default;fillColor=default;rotation=-180;" parent="1" vertex="1">
          <mxGeometry x="-315" y="120" width="30" height="40" as="geometry" />
        </mxCell>
        <mxCell id="6sBdYNOKg4DvN8dYeQ6p-472" value="" style="verticalLabelPosition=bottom;html=1;verticalAlign=top;align=center;shape=mxgraph.floorplan.chair;strokeColor=default;fontFamily=Helvetica;fontSize=12;fontColor=default;fillColor=default;rotation=-180;" parent="1" vertex="1">
          <mxGeometry x="-275" y="120" width="30" height="40" as="geometry" />
        </mxCell>
        <mxCell id="6sBdYNOKg4DvN8dYeQ6p-473" value="" style="verticalLabelPosition=bottom;html=1;verticalAlign=top;align=center;shape=mxgraph.floorplan.chair;strokeColor=default;fontFamily=Helvetica;fontSize=12;fontColor=default;fillColor=default;rotation=-180;" parent="1" vertex="1">
          <mxGeometry x="-235" y="120" width="30" height="40" as="geometry" />
        </mxCell>
        <mxCell id="6sBdYNOKg4DvN8dYeQ6p-474" value="" style="verticalLabelPosition=bottom;html=1;verticalAlign=top;align=center;shape=mxgraph.floorplan.chair;strokeColor=default;fontFamily=Helvetica;fontSize=12;fontColor=default;fillColor=default;rotation=-180;" parent="1" vertex="1">
          <mxGeometry x="-195" y="120" width="30" height="40" as="geometry" />
        </mxCell>
        <mxCell id="6sBdYNOKg4DvN8dYeQ6p-475" value="" style="verticalLabelPosition=bottom;html=1;verticalAlign=top;align=center;shape=mxgraph.floorplan.chair;strokeColor=default;fontFamily=Helvetica;fontSize=12;fontColor=default;fillColor=default;rotation=-180;" parent="1" vertex="1">
          <mxGeometry x="-155" y="120" width="30" height="40" as="geometry" />
        </mxCell>
        <mxCell id="6sBdYNOKg4DvN8dYeQ6p-476" value="" style="verticalLabelPosition=bottom;html=1;verticalAlign=top;align=center;shape=mxgraph.floorplan.chair;strokeColor=default;fontFamily=Helvetica;fontSize=12;fontColor=default;fillColor=default;rotation=-180;" parent="1" vertex="1">
          <mxGeometry x="-355" y="40" width="30" height="40" as="geometry" />
        </mxCell>
        <mxCell id="6sBdYNOKg4DvN8dYeQ6p-477" value="" style="verticalLabelPosition=bottom;html=1;verticalAlign=top;align=center;shape=mxgraph.floorplan.chair;strokeColor=default;fontFamily=Helvetica;fontSize=12;fontColor=default;fillColor=default;rotation=-180;" parent="1" vertex="1">
          <mxGeometry x="-315" y="40" width="30" height="40" as="geometry" />
        </mxCell>
        <mxCell id="6sBdYNOKg4DvN8dYeQ6p-478" value="" style="verticalLabelPosition=bottom;html=1;verticalAlign=top;align=center;shape=mxgraph.floorplan.chair;strokeColor=default;fontFamily=Helvetica;fontSize=12;fontColor=default;fillColor=default;rotation=-180;" parent="1" vertex="1">
          <mxGeometry x="-275" y="40" width="30" height="40" as="geometry" />
        </mxCell>
        <mxCell id="6sBdYNOKg4DvN8dYeQ6p-479" value="" style="verticalLabelPosition=bottom;html=1;verticalAlign=top;align=center;shape=mxgraph.floorplan.chair;strokeColor=default;fontFamily=Helvetica;fontSize=12;fontColor=default;fillColor=default;rotation=-180;" parent="1" vertex="1">
          <mxGeometry x="-235" y="40" width="30" height="40" as="geometry" />
        </mxCell>
        <mxCell id="6sBdYNOKg4DvN8dYeQ6p-480" value="" style="verticalLabelPosition=bottom;html=1;verticalAlign=top;align=center;shape=mxgraph.floorplan.chair;strokeColor=default;fontFamily=Helvetica;fontSize=12;fontColor=default;fillColor=default;rotation=-180;" parent="1" vertex="1">
          <mxGeometry x="-195" y="40" width="30" height="40" as="geometry" />
        </mxCell>
        <mxCell id="6sBdYNOKg4DvN8dYeQ6p-481" value="" style="verticalLabelPosition=bottom;html=1;verticalAlign=top;align=center;shape=mxgraph.floorplan.chair;strokeColor=default;fontFamily=Helvetica;fontSize=12;fontColor=default;fillColor=default;rotation=-180;" parent="1" vertex="1">
          <mxGeometry x="-155" y="40" width="30" height="40" as="geometry" />
        </mxCell>
        <mxCell id="6sBdYNOKg4DvN8dYeQ6p-482" value="" style="verticalLabelPosition=bottom;html=1;verticalAlign=top;align=center;shape=mxgraph.floorplan.chair;strokeColor=default;fontFamily=Helvetica;fontSize=12;fontColor=default;fillColor=#FFFF33;rotation=-180;" parent="1" vertex="1">
          <mxGeometry x="-357.5" y="-40" width="35" height="40" as="geometry" />
        </mxCell>
        <mxCell id="6sBdYNOKg4DvN8dYeQ6p-488" value="" style="verticalLabelPosition=bottom;html=1;verticalAlign=top;align=center;shape=mxgraph.floorplan.chair;strokeColor=default;fontFamily=Helvetica;fontSize=12;fontColor=default;fillColor=#FFFF33;rotation=-180;" parent="1" vertex="1">
          <mxGeometry x="-75" y="-40" width="30" height="40" as="geometry" />
        </mxCell>
        <mxCell id="6sBdYNOKg4DvN8dYeQ6p-489" value="" style="verticalLabelPosition=bottom;html=1;verticalAlign=top;align=center;shape=mxgraph.floorplan.chair;strokeColor=default;fontFamily=Helvetica;fontSize=12;fontColor=default;fillColor=#FFFF33;rotation=-180;" parent="1" vertex="1">
          <mxGeometry x="-35" y="-40" width="30" height="40" as="geometry" />
        </mxCell>
        <mxCell id="6sBdYNOKg4DvN8dYeQ6p-490" value="" style="verticalLabelPosition=bottom;html=1;verticalAlign=top;align=center;shape=mxgraph.floorplan.chair;strokeColor=default;fontFamily=Helvetica;fontSize=12;fontColor=default;fillColor=#3333FF;rotation=-180;" parent="1" vertex="1">
          <mxGeometry x="5" y="-40" width="70" height="40" as="geometry" />
        </mxCell>
        <mxCell id="6sBdYNOKg4DvN8dYeQ6p-492" value="" style="verticalLabelPosition=bottom;html=1;verticalAlign=top;align=center;shape=mxgraph.floorplan.chair;strokeColor=default;fontFamily=Helvetica;fontSize=12;fontColor=default;fillColor=#FFFF33;rotation=-180;" parent="1" vertex="1">
          <mxGeometry x="85" y="-40" width="30" height="40" as="geometry" />
        </mxCell>
        <mxCell id="6sBdYNOKg4DvN8dYeQ6p-493" value="" style="verticalLabelPosition=bottom;html=1;verticalAlign=top;align=center;shape=mxgraph.floorplan.chair;strokeColor=default;fontFamily=Helvetica;fontSize=12;fontColor=default;fillColor=#FFFF33;rotation=-180;" parent="1" vertex="1">
          <mxGeometry x="125" y="-40" width="30" height="40" as="geometry" />
        </mxCell>
        <mxCell id="6sBdYNOKg4DvN8dYeQ6p-494" value="" style="verticalLabelPosition=bottom;html=1;verticalAlign=top;align=center;shape=mxgraph.floorplan.chair;strokeColor=default;fontFamily=Helvetica;fontSize=12;fontColor=default;fillColor=default;rotation=-180;" parent="1" vertex="1">
          <mxGeometry x="-75" y="40" width="30" height="40" as="geometry" />
        </mxCell>
        <mxCell id="6sBdYNOKg4DvN8dYeQ6p-495" value="" style="verticalLabelPosition=bottom;html=1;verticalAlign=top;align=center;shape=mxgraph.floorplan.chair;strokeColor=default;fontFamily=Helvetica;fontSize=12;fontColor=default;fillColor=default;rotation=-180;" parent="1" vertex="1">
          <mxGeometry x="-35" y="40" width="30" height="40" as="geometry" />
        </mxCell>
        <mxCell id="6sBdYNOKg4DvN8dYeQ6p-496" value="" style="verticalLabelPosition=bottom;html=1;verticalAlign=top;align=center;shape=mxgraph.floorplan.chair;strokeColor=default;fontFamily=Helvetica;fontSize=12;fontColor=default;fillColor=default;rotation=-180;" parent="1" vertex="1">
          <mxGeometry x="5" y="40" width="30" height="40" as="geometry" />
        </mxCell>
        <mxCell id="6sBdYNOKg4DvN8dYeQ6p-497" value="" style="verticalLabelPosition=bottom;html=1;verticalAlign=top;align=center;shape=mxgraph.floorplan.chair;strokeColor=default;fontFamily=Helvetica;fontSize=12;fontColor=default;fillColor=default;rotation=-180;" parent="1" vertex="1">
          <mxGeometry x="45" y="40" width="30" height="40" as="geometry" />
        </mxCell>
        <mxCell id="6sBdYNOKg4DvN8dYeQ6p-498" value="" style="verticalLabelPosition=bottom;html=1;verticalAlign=top;align=center;shape=mxgraph.floorplan.chair;strokeColor=default;fontFamily=Helvetica;fontSize=12;fontColor=default;fillColor=default;rotation=-180;" parent="1" vertex="1">
          <mxGeometry x="85" y="40" width="30" height="40" as="geometry" />
        </mxCell>
        <mxCell id="6sBdYNOKg4DvN8dYeQ6p-499" value="" style="verticalLabelPosition=bottom;html=1;verticalAlign=top;align=center;shape=mxgraph.floorplan.chair;strokeColor=default;fontFamily=Helvetica;fontSize=12;fontColor=default;fillColor=default;rotation=-180;" parent="1" vertex="1">
          <mxGeometry x="125" y="40" width="30" height="40" as="geometry" />
        </mxCell>
        <mxCell id="6sBdYNOKg4DvN8dYeQ6p-500" value="" style="verticalLabelPosition=bottom;html=1;verticalAlign=top;align=center;shape=mxgraph.floorplan.chair;strokeColor=default;fontFamily=Helvetica;fontSize=12;fontColor=default;fillColor=default;rotation=-180;" parent="1" vertex="1">
          <mxGeometry x="-75" y="120" width="30" height="40" as="geometry" />
        </mxCell>
        <mxCell id="6sBdYNOKg4DvN8dYeQ6p-501" value="" style="verticalLabelPosition=bottom;html=1;verticalAlign=top;align=center;shape=mxgraph.floorplan.chair;strokeColor=default;fontFamily=Helvetica;fontSize=12;fontColor=default;fillColor=default;rotation=-180;" parent="1" vertex="1">
          <mxGeometry x="-35" y="120" width="30" height="40" as="geometry" />
        </mxCell>
        <mxCell id="6sBdYNOKg4DvN8dYeQ6p-502" value="" style="verticalLabelPosition=bottom;html=1;verticalAlign=top;align=center;shape=mxgraph.floorplan.chair;strokeColor=default;fontFamily=Helvetica;fontSize=12;fontColor=default;fillColor=default;rotation=-180;" parent="1" vertex="1">
          <mxGeometry x="5" y="120" width="30" height="40" as="geometry" />
        </mxCell>
        <mxCell id="6sBdYNOKg4DvN8dYeQ6p-503" value="" style="verticalLabelPosition=bottom;html=1;verticalAlign=top;align=center;shape=mxgraph.floorplan.chair;strokeColor=default;fontFamily=Helvetica;fontSize=12;fontColor=default;fillColor=default;rotation=-180;" parent="1" vertex="1">
          <mxGeometry x="45" y="120" width="30" height="40" as="geometry" />
        </mxCell>
        <mxCell id="6sBdYNOKg4DvN8dYeQ6p-504" value="" style="verticalLabelPosition=bottom;html=1;verticalAlign=top;align=center;shape=mxgraph.floorplan.chair;strokeColor=default;fontFamily=Helvetica;fontSize=12;fontColor=default;fillColor=default;rotation=-180;" parent="1" vertex="1">
          <mxGeometry x="85" y="120" width="30" height="40" as="geometry" />
        </mxCell>
        <mxCell id="6sBdYNOKg4DvN8dYeQ6p-505" value="" style="verticalLabelPosition=bottom;html=1;verticalAlign=top;align=center;shape=mxgraph.floorplan.chair;strokeColor=default;fontFamily=Helvetica;fontSize=12;fontColor=default;fillColor=default;rotation=-180;" parent="1" vertex="1">
          <mxGeometry x="125" y="120" width="30" height="40" as="geometry" />
        </mxCell>
        <mxCell id="6sBdYNOKg4DvN8dYeQ6p-507" value="" style="verticalLabelPosition=bottom;html=1;verticalAlign=top;align=center;shape=mxgraph.floorplan.table;strokeColor=default;fontFamily=Helvetica;fontSize=12;fontColor=default;fillColor=default;" parent="1" vertex="1">
          <mxGeometry x="-231" y="-160" width="270" height="40" as="geometry" />
        </mxCell>
        <mxCell id="6sBdYNOKg4DvN8dYeQ6p-508" value="" style="verticalLabelPosition=bottom;html=1;verticalAlign=top;align=center;shape=mxgraph.floorplan.workstation;strokeColor=default;fontFamily=Helvetica;fontSize=12;fontColor=default;fillColor=default;rotation=-180;" parent="1" vertex="1">
          <mxGeometry x="-160.5" y="-160" width="50" height="40" as="geometry" />
        </mxCell>
        <mxCell id="6sBdYNOKg4DvN8dYeQ6p-510" value="" style="verticalLabelPosition=bottom;html=1;verticalAlign=top;align=center;shape=mxgraph.floorplan.workstation;strokeColor=default;fontFamily=Helvetica;fontSize=12;fontColor=default;fillColor=default;rotation=-180;" parent="1" vertex="1">
          <mxGeometry x="-89.5" y="-160" width="50" height="40" as="geometry" />
        </mxCell>
        <mxCell id="6sBdYNOKg4DvN8dYeQ6p-512" value="" style="verticalLabelPosition=bottom;html=1;verticalAlign=top;align=center;shape=mxgraph.floorplan.office_chair;strokeColor=default;fontFamily=Helvetica;fontSize=12;fontColor=default;fillColor=default;" parent="1" vertex="1">
          <mxGeometry x="-155" y="-210" width="40" height="43" as="geometry" />
        </mxCell>
        <mxCell id="6sBdYNOKg4DvN8dYeQ6p-513" value="" style="verticalLabelPosition=bottom;html=1;verticalAlign=top;align=center;shape=mxgraph.floorplan.office_chair;strokeColor=default;fontFamily=Helvetica;fontSize=12;fontColor=default;fillColor=default;" parent="1" vertex="1">
          <mxGeometry x="-85" y="-210" width="40" height="43" as="geometry" />
        </mxCell>
        <mxCell id="6sBdYNOKg4DvN8dYeQ6p-515" value="" style="verticalLabelPosition=bottom;html=1;verticalAlign=top;align=center;shape=mxgraph.floorplan.wall;fillColor=strokeColor;strokeColor=default;fontFamily=Helvetica;fontSize=12;fontColor=default;" parent="1" vertex="1">
          <mxGeometry x="40" y="-130" width="120" height="10" as="geometry" />
        </mxCell>
        <mxCell id="6sBdYNOKg4DvN8dYeQ6p-516" value="" style="verticalLabelPosition=bottom;html=1;verticalAlign=top;align=center;shape=mxgraph.floorplan.wall;fillColor=strokeColor;strokeColor=default;fontFamily=Helvetica;fontSize=12;fontColor=default;" parent="1" vertex="1">
          <mxGeometry x="-380" y="-130" width="149" height="10" as="geometry" />
        </mxCell>
        <mxCell id="6sBdYNOKg4DvN8dYeQ6p-517" value="" style="verticalLabelPosition=bottom;html=1;verticalAlign=top;align=center;shape=mxgraph.floorplan.wall;fillColor=strokeColor;direction=south;strokeColor=default;fontFamily=Helvetica;fontSize=12;fontColor=default;" parent="1" vertex="1">
          <mxGeometry x="-290" y="-210" width="9" height="90" as="geometry" />
        </mxCell>
        <mxCell id="6sBdYNOKg4DvN8dYeQ6p-521" value="" style="verticalLabelPosition=bottom;html=1;verticalAlign=top;align=center;shape=mxgraph.floorplan.doorRight;aspect=fixed;strokeColor=default;fontFamily=Helvetica;fontSize=12;fontColor=default;fillColor=default;rotation=-90;" parent="1" vertex="1">
          <mxGeometry x="-289.28" y="-250.72000000000003" width="39" height="41.44" as="geometry" />
        </mxCell>
        <mxCell id="6sBdYNOKg4DvN8dYeQ6p-522" value="" style="verticalLabelPosition=bottom;html=1;verticalAlign=top;align=center;shape=mxgraph.floorplan.dresser;strokeColor=default;fontFamily=Helvetica;fontSize=12;fontColor=default;fillColor=default;rotation=-180;" parent="1" vertex="1">
          <mxGeometry x="50" y="-202.5" width="100" height="65" as="geometry" />
        </mxCell>
        <mxCell id="6sBdYNOKg4DvN8dYeQ6p-524" value="" style="verticalLabelPosition=bottom;html=1;verticalAlign=top;align=center;shape=mxgraph.floorplan.printer;strokeColor=default;fontFamily=Helvetica;fontSize=12;fontColor=default;fillColor=default;rotation=90;" parent="1" vertex="1">
          <mxGeometry x="79" y="-188.5" width="40" height="47" as="geometry" />
        </mxCell>
        <mxCell id="6sBdYNOKg4DvN8dYeQ6p-525" value="" style="verticalLabelPosition=bottom;html=1;verticalAlign=top;align=center;shape=mxgraph.floorplan.plant;strokeColor=#82b366;fontFamily=Helvetica;fontSize=12;fillColor=#d5e8d4;" parent="1" vertex="1">
          <mxGeometry x="123" y="-115" width="30" height="31" as="geometry" />
        </mxCell>
        <mxCell id="6sBdYNOKg4DvN8dYeQ6p-526" value="" style="verticalLabelPosition=bottom;html=1;verticalAlign=top;align=center;shape=mxgraph.floorplan.plant;strokeColor=#82b366;fontFamily=Helvetica;fontSize=12;fillColor=#d5e8d4;" parent="1" vertex="1">
          <mxGeometry x="-115.49999999999997" y="124.5" width="30" height="31" as="geometry" />
        </mxCell>
        <mxCell id="6sBdYNOKg4DvN8dYeQ6p-527" value="" style="verticalLabelPosition=bottom;html=1;verticalAlign=top;align=center;shape=mxgraph.floorplan.couch;strokeColor=default;fontFamily=Helvetica;fontSize=12;fontColor=default;fillColor=default;rotation=90;direction=south;" parent="1" vertex="1">
          <mxGeometry x="-110.13" y="-316.25" width="30" height="72.5" as="geometry" />
        </mxCell>
        <mxCell id="6sBdYNOKg4DvN8dYeQ6p-528" value="" style="verticalLabelPosition=bottom;html=1;verticalAlign=top;align=center;shape=mxgraph.floorplan.couch;strokeColor=default;fontFamily=Helvetica;fontSize=12;fontColor=default;fillColor=default;rotation=-180;" parent="1" vertex="1">
          <mxGeometry x="-251" y="-295" width="72.5" height="30" as="geometry" />
        </mxCell>
        <mxCell id="6sBdYNOKg4DvN8dYeQ6p-529" value="" style="verticalLabelPosition=bottom;html=1;verticalAlign=top;align=center;shape=mxgraph.floorplan.plant;strokeColor=#82b366;fontFamily=Helvetica;fontSize=12;fillColor=#d5e8d4;" parent="1" vertex="1">
          <mxGeometry x="-169" y="-292.5" width="25" height="25" as="geometry" />
        </mxCell>
        <mxCell id="6sBdYNOKg4DvN8dYeQ6p-530" value="" style="verticalLabelPosition=bottom;html=1;verticalAlign=top;align=center;shape=mxgraph.floorplan.table;strokeColor=default;fontFamily=Helvetica;fontSize=12;fontColor=default;fillColor=default;" parent="1" vertex="1">
          <mxGeometry x="-182.5" y="-366.25" width="55" height="50" as="geometry" />
        </mxCell>
        <mxCell id="6sBdYNOKg4DvN8dYeQ6p-542" value="" style="verticalLabelPosition=bottom;html=1;verticalAlign=top;align=center;shape=mxgraph.floorplan.wall;fillColor=strokeColor;direction=south;strokeColor=default;fontFamily=Helvetica;fontSize=12;fontColor=default;" parent="1" vertex="1">
          <mxGeometry x="-290.5" y="-260" width="10" height="10.28" as="geometry" />
        </mxCell>
        <mxCell id="6sBdYNOKg4DvN8dYeQ6p-543" value="" style="verticalLabelPosition=bottom;html=1;verticalAlign=top;align=center;shape=mxgraph.floorplan.wall;fillColor=strokeColor;strokeColor=default;fontFamily=Helvetica;fontSize=12;fontColor=default;perimeterSpacing=0;" parent="1" vertex="1">
          <mxGeometry x="-290" y="-260" width="450" height="10" as="geometry" />
        </mxCell>
        <mxCell id="MSX6HTeKCzLweOMTaPtv-2" value="" style="verticalLabelPosition=bottom;html=1;verticalAlign=top;align=center;shape=mxgraph.floorplan.chair;strokeColor=default;fontFamily=Helvetica;fontSize=12;fontColor=default;fillColor=#3333FF;rotation=-180;" vertex="1" parent="1">
          <mxGeometry x="-275" y="-40" width="70" height="40" as="geometry" />
        </mxCell>
        <mxCell id="MSX6HTeKCzLweOMTaPtv-3" value="" style="verticalLabelPosition=bottom;html=1;verticalAlign=top;align=center;shape=mxgraph.floorplan.chair;strokeColor=default;fontFamily=Helvetica;fontSize=12;fontColor=default;fillColor=#FFFF33;rotation=-180;" vertex="1" parent="1">
          <mxGeometry x="-155" y="-40" width="30" height="40" as="geometry" />
        </mxCell>
        <mxCell id="MSX6HTeKCzLweOMTaPtv-4" value="" style="verticalLabelPosition=bottom;html=1;verticalAlign=top;align=center;shape=mxgraph.floorplan.bookcase;rotation=-90;direction=south;" vertex="1" parent="1">
          <mxGeometry x="-83.5" y="-477" width="25" height="91.25" as="geometry" />
        </mxCell>
        <mxCell id="MSX6HTeKCzLweOMTaPtv-19" value="" style="verticalLabelPosition=bottom;html=1;verticalAlign=top;align=center;shape=mxgraph.floorplan.doorUneven;dx=0.5;direction=west;" vertex="1" parent="1">
          <mxGeometry x="-495" y="-170" width="115" height="50" as="geometry" />
        </mxCell>
        <mxCell id="MSX6HTeKCzLweOMTaPtv-20" value="" style="verticalLabelPosition=bottom;html=1;verticalAlign=top;align=center;shape=mxgraph.floorplan.wall;fillColor=strokeColor;strokeColor=default;fontFamily=Helvetica;fontSize=12;fontColor=default;" vertex="1" parent="1">
          <mxGeometry x="-520" y="-130" width="25" height="10" as="geometry" />
        </mxCell>
        <mxCell id="MSX6HTeKCzLweOMTaPtv-21" value="" style="verticalLabelPosition=bottom;html=1;verticalAlign=top;align=center;shape=mxgraph.floorplan.wall;fillColor=strokeColor;strokeColor=default;fontFamily=Helvetica;fontSize=12;fontColor=default;direction=south;" vertex="1" parent="1">
          <mxGeometry x="-520" y="-800" width="10" height="680" as="geometry" />
        </mxCell>
        <mxCell id="MSX6HTeKCzLweOMTaPtv-22" value="" style="verticalLabelPosition=bottom;html=1;verticalAlign=top;align=center;shape=mxgraph.floorplan.wall;fillColor=strokeColor;strokeColor=default;fontFamily=Helvetica;fontSize=12;fontColor=default;direction=south;" vertex="1" parent="1">
          <mxGeometry x="-704.25" y="-420" width="10" height="121" as="geometry" />
        </mxCell>
        <mxCell id="MSX6HTeKCzLweOMTaPtv-23" value="" style="verticalLabelPosition=bottom;html=1;verticalAlign=top;align=center;shape=mxgraph.floorplan.chair;strokeColor=default;fontFamily=Helvetica;fontSize=12;fontColor=default;fillColor=#FFFF33;rotation=-180;" vertex="1" parent="1">
          <mxGeometry x="-317.5" y="-40" width="35" height="40" as="geometry" />
        </mxCell>
        <mxCell id="MSX6HTeKCzLweOMTaPtv-24" value="" style="verticalLabelPosition=bottom;html=1;verticalAlign=top;align=center;shape=mxgraph.floorplan.chair;strokeColor=default;fontFamily=Helvetica;fontSize=12;fontColor=default;fillColor=#FFFF33;rotation=-180;" vertex="1" parent="1">
          <mxGeometry x="-195" y="-40" width="30" height="40" as="geometry" />
        </mxCell>
        <mxCell id="MSX6HTeKCzLweOMTaPtv-25" value="" style="verticalLabelPosition=bottom;html=1;verticalAlign=top;align=center;shape=mxgraph.floorplan.room;fillColor=strokeColor;rotation=90;" vertex="1" parent="1">
          <mxGeometry x="-112.64" y="-107.38" width="10" height="544.74" as="geometry" />
        </mxCell>
        <mxCell id="MSX6HTeKCzLweOMTaPtv-31" value="" style="verticalLabelPosition=bottom;html=1;verticalAlign=top;align=center;shape=mxgraph.floorplan.wall;fillColor=strokeColor;direction=south;" vertex="1" parent="1">
          <mxGeometry x="-520" y="-241" width="10" height="150" as="geometry" />
        </mxCell>
        <mxCell id="MSX6HTeKCzLweOMTaPtv-35" value="" style="verticalLabelPosition=bottom;html=1;verticalAlign=top;align=center;shape=mxgraph.floorplan.wall;fillColor=strokeColor;direction=south;" vertex="1" parent="1">
          <mxGeometry x="-705.37" y="13.010000000000005" width="10" height="149" as="geometry" />
        </mxCell>
        <mxCell id="MSX6HTeKCzLweOMTaPtv-38" value="" style="verticalLabelPosition=bottom;html=1;verticalAlign=top;align=center;shape=mxgraph.floorplan.wall;fillColor=strokeColor;direction=south;" vertex="1" parent="1">
          <mxGeometry x="-865.87" y="-420" width="10" height="120" as="geometry" />
        </mxCell>
        <mxCell id="MSX6HTeKCzLweOMTaPtv-42" value="" style="verticalLabelPosition=bottom;html=1;verticalAlign=top;align=center;shape=mxgraph.floorplan.wall;fillColor=strokeColor;" vertex="1" parent="1">
          <mxGeometry x="-1049.87" y="160.01" width="520" height="10" as="geometry" />
        </mxCell>
        <mxCell id="MSX6HTeKCzLweOMTaPtv-44" value="" style="verticalLabelPosition=bottom;html=1;verticalAlign=top;align=center;shape=mxgraph.floorplan.flat_tv;" vertex="1" parent="1">
          <mxGeometry x="-301" y="-120" width="70" height="10" as="geometry" />
        </mxCell>
        <mxCell id="MSX6HTeKCzLweOMTaPtv-45" value="" style="verticalLabelPosition=bottom;html=1;verticalAlign=top;align=center;shape=mxgraph.floorplan.flat_tv;" vertex="1" parent="1">
          <mxGeometry x="40" y="-120" width="70" height="10" as="geometry" />
        </mxCell>
        <mxCell id="MSX6HTeKCzLweOMTaPtv-46" value="" style="verticalLabelPosition=bottom;html=1;verticalAlign=top;align=center;shape=mxgraph.floorplan.sofa;direction=north;" vertex="1" parent="1">
          <mxGeometry x="-290" y="-364.25" width="35" height="46" as="geometry" />
        </mxCell>
        <mxCell id="MSX6HTeKCzLweOMTaPtv-48" value="" style="verticalLabelPosition=bottom;html=1;verticalAlign=top;align=center;shape=mxgraph.floorplan.wall;fillColor=strokeColor;direction=south;strokeColor=default;fontFamily=Helvetica;fontSize=12;fontColor=default;" vertex="1" parent="1">
          <mxGeometry x="430" y="-475.63" width="10" height="150" as="geometry" />
        </mxCell>
        <mxCell id="MSX6HTeKCzLweOMTaPtv-49" value="" style="verticalLabelPosition=bottom;html=1;verticalAlign=top;align=center;shape=mxgraph.floorplan.wall;fillColor=strokeColor;strokeColor=default;fontFamily=Helvetica;fontSize=12;fontColor=default;" vertex="1" parent="1">
          <mxGeometry x="340" y="-475.63" width="50" height="10" as="geometry" />
        </mxCell>
        <mxCell id="MSX6HTeKCzLweOMTaPtv-50" value="" style="verticalLabelPosition=bottom;html=1;verticalAlign=top;align=center;shape=mxgraph.floorplan.wall;fillColor=strokeColor;direction=south;strokeColor=default;fontFamily=Helvetica;fontSize=12;fontColor=default;" vertex="1" parent="1">
          <mxGeometry x="340" y="-475.63" width="10" height="150" as="geometry" />
        </mxCell>
        <mxCell id="MSX6HTeKCzLweOMTaPtv-51" value="" style="verticalLabelPosition=bottom;html=1;verticalAlign=top;align=center;shape=mxgraph.floorplan.doorRight;aspect=fixed;strokeColor=default;fontFamily=Helvetica;fontSize=12;fontColor=default;fillColor=default;" vertex="1" parent="1">
          <mxGeometry x="390.01" y="-475.63" width="40" height="42.5" as="geometry" />
        </mxCell>
        <mxCell id="MSX6HTeKCzLweOMTaPtv-52" value="" style="verticalLabelPosition=bottom;html=1;verticalAlign=top;align=center;shape=mxgraph.floorplan.toilet;strokeColor=default;fontFamily=Helvetica;fontSize=12;fontColor=default;fillColor=default;rotation=-90;direction=north;" vertex="1" parent="1">
          <mxGeometry x="370.255" y="-350.635" width="29.75" height="25" as="geometry" />
        </mxCell>
        <mxCell id="MSX6HTeKCzLweOMTaPtv-53" value="" style="verticalLabelPosition=bottom;html=1;verticalAlign=top;align=center;shape=mxgraph.floorplan.sink_1;direction=south;" vertex="1" parent="1">
          <mxGeometry x="400.01" y="-414.63" width="30" height="30" as="geometry" />
        </mxCell>
        <mxCell id="MSX6HTeKCzLweOMTaPtv-55" value="" style="verticalLabelPosition=bottom;html=1;verticalAlign=top;align=center;shape=mxgraph.floorplan.wall;fillColor=strokeColor;strokeColor=default;fontFamily=Helvetica;fontSize=12;fontColor=default;direction=south;" vertex="1" parent="1">
          <mxGeometry x="32" y="-445" width="10" height="53" as="geometry" />
        </mxCell>
        <mxCell id="MSX6HTeKCzLweOMTaPtv-58" value="" style="verticalLabelPosition=bottom;html=1;verticalAlign=top;align=center;shape=mxgraph.floorplan.toilet;strokeColor=default;fontFamily=Helvetica;fontSize=12;fontColor=default;fillColor=default;rotation=-90;direction=west;" vertex="1" parent="1">
          <mxGeometry x="132" y="-293" width="25" height="29.75" as="geometry" />
        </mxCell>
        <mxCell id="MSX6HTeKCzLweOMTaPtv-59" value="" style="verticalLabelPosition=bottom;html=1;verticalAlign=top;align=center;shape=mxgraph.floorplan.sink_1;direction=east;" vertex="1" parent="1">
          <mxGeometry x="81" y="-340.25" width="30" height="30" as="geometry" />
        </mxCell>
        <mxCell id="MSX6HTeKCzLweOMTaPtv-60" value="" style="verticalLabelPosition=bottom;html=1;verticalAlign=top;align=center;shape=mxgraph.floorplan.doorLeft;aspect=fixed;direction=north;" vertex="1" parent="1">
          <mxGeometry x="32" y="-300.48" width="43" height="40.48" as="geometry" />
        </mxCell>
        <mxCell id="MSX6HTeKCzLweOMTaPtv-61" value="" style="verticalLabelPosition=bottom;html=1;verticalAlign=top;align=center;shape=mxgraph.floorplan.wallCorner;fillColor=strokeColor;" vertex="1" parent="1">
          <mxGeometry x="32" y="-351" width="128" height="50" as="geometry" />
        </mxCell>
        <mxCell id="MSX6HTeKCzLweOMTaPtv-62" value="" style="verticalLabelPosition=bottom;html=1;verticalAlign=top;align=center;shape=mxgraph.floorplan.toilet;strokeColor=default;fontFamily=Helvetica;fontSize=12;fontColor=default;fillColor=default;rotation=-90;direction=west;" vertex="1" parent="1">
          <mxGeometry x="299.5" y="-235.5" width="25" height="29.75" as="geometry" />
        </mxCell>
        <mxCell id="MSX6HTeKCzLweOMTaPtv-63" value="" style="verticalLabelPosition=bottom;html=1;verticalAlign=top;align=center;shape=mxgraph.floorplan.sink_1;direction=east;" vertex="1" parent="1">
          <mxGeometry x="242.5" y="-282.74" width="30" height="30" as="geometry" />
        </mxCell>
        <mxCell id="MSX6HTeKCzLweOMTaPtv-64" value="" style="verticalLabelPosition=bottom;html=1;verticalAlign=top;align=center;shape=mxgraph.floorplan.doorLeft;aspect=fixed;direction=north;" vertex="1" parent="1">
          <mxGeometry x="199.5" y="-242.98000000000002" width="43" height="40.48" as="geometry" />
        </mxCell>
        <mxCell id="MSX6HTeKCzLweOMTaPtv-65" value="" style="verticalLabelPosition=bottom;html=1;verticalAlign=top;align=center;shape=mxgraph.floorplan.wallCorner;fillColor=strokeColor;" vertex="1" parent="1">
          <mxGeometry x="199.5" y="-292.5" width="128" height="49.52" as="geometry" />
        </mxCell>
        <mxCell id="MSX6HTeKCzLweOMTaPtv-66" value="" style="verticalLabelPosition=bottom;html=1;verticalAlign=top;align=center;shape=mxgraph.floorplan.doorLeft;aspect=fixed;direction=north;" vertex="1" parent="1">
          <mxGeometry x="32" y="-391.42" width="43" height="40.48" as="geometry" />
        </mxCell>
        <mxCell id="MSX6HTeKCzLweOMTaPtv-67" value="" style="verticalLabelPosition=bottom;html=1;verticalAlign=top;align=center;shape=mxgraph.floorplan.toilet;strokeColor=default;fontFamily=Helvetica;fontSize=12;fontColor=default;fillColor=default;rotation=-90;direction=west;" vertex="1" parent="1">
          <mxGeometry x="132" y="-385.75" width="25" height="29.75" as="geometry" />
        </mxCell>
        <mxCell id="MSX6HTeKCzLweOMTaPtv-68" value="" style="verticalLabelPosition=bottom;html=1;verticalAlign=top;align=center;shape=mxgraph.floorplan.sink_1;direction=east;" vertex="1" parent="1">
          <mxGeometry x="81" y="-442" width="30" height="30" as="geometry" />
        </mxCell>
        <mxCell id="MSX6HTeKCzLweOMTaPtv-69" value="" style="verticalLabelPosition=bottom;html=1;verticalAlign=top;align=center;shape=mxgraph.floorplan.flat_tv;" vertex="1" parent="1">
          <mxGeometry x="-191.5" y="-442" width="70" height="10" as="geometry" />
        </mxCell>
        <mxCell id="MSX6HTeKCzLweOMTaPtv-75" value="" style="verticalLabelPosition=bottom;html=1;verticalAlign=top;align=center;shape=mxgraph.floorplan.doorLeft;aspect=fixed;direction=north;" vertex="1" parent="1">
          <mxGeometry x="-704.3699999999999" y="-299.99" width="41.23" height="38.82" as="geometry" />
        </mxCell>
        <mxCell id="MSX6HTeKCzLweOMTaPtv-76" value="" style="verticalLabelPosition=bottom;html=1;verticalAlign=top;align=center;shape=mxgraph.floorplan.doorLeft;aspect=fixed;direction=east;" vertex="1" parent="1">
          <mxGeometry x="-873.365" y="13.00500000000001" width="38.13" height="40.5" as="geometry" />
        </mxCell>
        <mxCell id="MSX6HTeKCzLweOMTaPtv-77" value="" style="verticalLabelPosition=bottom;html=1;verticalAlign=top;align=center;shape=mxgraph.floorplan.doorLeft;aspect=fixed;direction=east;" vertex="1" parent="1">
          <mxGeometry x="-695.375" y="13.00500000000001" width="38.13" height="40.5" as="geometry" />
        </mxCell>
        <mxCell id="MSX6HTeKCzLweOMTaPtv-78" value="" style="verticalLabelPosition=bottom;html=1;verticalAlign=top;align=center;shape=mxgraph.floorplan.doorRight;aspect=fixed;rotation=-180;direction=north;" vertex="1" parent="1">
          <mxGeometry x="-897.435" y="-141.00500000000005" width="41.43" height="39" as="geometry" />
        </mxCell>
        <mxCell id="MSX6HTeKCzLweOMTaPtv-79" value="" style="verticalLabelPosition=bottom;html=1;verticalAlign=top;align=center;shape=mxgraph.floorplan.doorRight;aspect=fixed;rotation=-180;direction=north;" vertex="1" parent="1">
          <mxGeometry x="-897.3049999999998" y="-299.98500000000007" width="41.43" height="39" as="geometry" />
        </mxCell>
        <mxCell id="MSX6HTeKCzLweOMTaPtv-81" value="" style="verticalLabelPosition=bottom;html=1;verticalAlign=top;align=center;shape=mxgraph.floorplan.wall;fillColor=strokeColor;" vertex="1" parent="1">
          <mxGeometry x="-1040" y="-102.01" width="184.13" height="10" as="geometry" />
        </mxCell>
        <mxCell id="MSX6HTeKCzLweOMTaPtv-82" value="" style="verticalLabelPosition=bottom;html=1;verticalAlign=top;align=center;shape=mxgraph.floorplan.wall;fillColor=strokeColor;" vertex="1" parent="1">
          <mxGeometry x="-700" y="-420" width="182.25" height="10" as="geometry" />
        </mxCell>
        <mxCell id="MSX6HTeKCzLweOMTaPtv-83" value="" style="verticalLabelPosition=bottom;html=1;verticalAlign=top;align=center;shape=mxgraph.floorplan.wall;fillColor=strokeColor;" vertex="1" parent="1">
          <mxGeometry x="-1040" y="-261" width="180" height="10" as="geometry" />
        </mxCell>
        <mxCell id="MSX6HTeKCzLweOMTaPtv-84" value="" style="verticalLabelPosition=bottom;html=1;verticalAlign=top;align=center;shape=mxgraph.floorplan.wall;fillColor=strokeColor;" vertex="1" parent="1">
          <mxGeometry x="-835.23" y="13.000000000000014" width="134" height="10" as="geometry" />
        </mxCell>
        <mxCell id="MSX6HTeKCzLweOMTaPtv-86" value="" style="verticalLabelPosition=bottom;html=1;verticalAlign=top;align=center;shape=mxgraph.floorplan.wall;fillColor=strokeColor;" vertex="1" parent="1">
          <mxGeometry x="-657.25" y="13.01" width="137.25" height="10" as="geometry" />
        </mxCell>
        <mxCell id="MSX6HTeKCzLweOMTaPtv-96" value="" style="verticalLabelPosition=bottom;html=1;verticalAlign=top;align=center;shape=mxgraph.floorplan.office_chair;shadow=0;" vertex="1" parent="1">
          <mxGeometry x="-1020" y="-251" width="40" height="43" as="geometry" />
        </mxCell>
        <mxCell id="MSX6HTeKCzLweOMTaPtv-97" value="" style="shape=rect;shadow=0;html=1;" vertex="1" parent="1">
          <mxGeometry x="-1040" y="-231" width="80" height="50" as="geometry" />
        </mxCell>
        <mxCell id="MSX6HTeKCzLweOMTaPtv-98" value="" style="verticalLabelPosition=bottom;html=1;verticalAlign=top;align=center;shape=mxgraph.floorplan.workstation;shadow=0;flipV=1;" vertex="1" parent="1">
          <mxGeometry x="-1025" y="-221" width="50" height="40" as="geometry" />
        </mxCell>
        <mxCell id="MSX6HTeKCzLweOMTaPtv-99" value="" style="verticalLabelPosition=bottom;html=1;verticalAlign=top;align=center;shape=mxgraph.floorplan.office_chair;shadow=0;" vertex="1" parent="1">
          <mxGeometry x="-1020" y="-410.25" width="40" height="43" as="geometry" />
        </mxCell>
        <mxCell id="MSX6HTeKCzLweOMTaPtv-100" value="" style="shape=rect;shadow=0;html=1;" vertex="1" parent="1">
          <mxGeometry x="-1040" y="-390.25" width="80" height="50" as="geometry" />
        </mxCell>
        <mxCell id="MSX6HTeKCzLweOMTaPtv-101" value="" style="verticalLabelPosition=bottom;html=1;verticalAlign=top;align=center;shape=mxgraph.floorplan.workstation;shadow=0;flipV=1;" vertex="1" parent="1">
          <mxGeometry x="-1025" y="-380.25" width="50" height="40" as="geometry" />
        </mxCell>
        <mxCell id="MSX6HTeKCzLweOMTaPtv-102" value="" style="verticalLabelPosition=bottom;html=1;verticalAlign=top;align=center;shape=mxgraph.floorplan.office_chair;shadow=0;" vertex="1" parent="1">
          <mxGeometry x="-580.25" y="-251" width="40" height="43" as="geometry" />
        </mxCell>
        <mxCell id="MSX6HTeKCzLweOMTaPtv-103" value="" style="shape=rect;shadow=0;html=1;" vertex="1" parent="1">
          <mxGeometry x="-600.25" y="-231" width="80" height="50" as="geometry" />
        </mxCell>
        <mxCell id="MSX6HTeKCzLweOMTaPtv-104" value="" style="verticalLabelPosition=bottom;html=1;verticalAlign=top;align=center;shape=mxgraph.floorplan.workstation;shadow=0;flipV=1;" vertex="1" parent="1">
          <mxGeometry x="-585.25" y="-221" width="50" height="40" as="geometry" />
        </mxCell>
        <mxCell id="MSX6HTeKCzLweOMTaPtv-108" value="" style="verticalLabelPosition=bottom;html=1;verticalAlign=top;align=center;shape=mxgraph.floorplan.office_chair;shadow=0;" vertex="1" parent="1">
          <mxGeometry x="-580.25" y="-410" width="40" height="43" as="geometry" />
        </mxCell>
        <mxCell id="MSX6HTeKCzLweOMTaPtv-109" value="" style="shape=rect;shadow=0;html=1;" vertex="1" parent="1">
          <mxGeometry x="-600.25" y="-390" width="80" height="50" as="geometry" />
        </mxCell>
        <mxCell id="MSX6HTeKCzLweOMTaPtv-110" value="" style="verticalLabelPosition=bottom;html=1;verticalAlign=top;align=center;shape=mxgraph.floorplan.workstation;shadow=0;flipV=1;" vertex="1" parent="1">
          <mxGeometry x="-585.25" y="-380" width="50" height="40" as="geometry" />
        </mxCell>
        <mxCell id="MSX6HTeKCzLweOMTaPtv-111" value="" style="verticalLabelPosition=bottom;html=1;verticalAlign=top;align=center;shape=mxgraph.floorplan.office_chair;shadow=0;" vertex="1" parent="1">
          <mxGeometry x="-765.37" y="23.010000000000005" width="40" height="43" as="geometry" />
        </mxCell>
        <mxCell id="MSX6HTeKCzLweOMTaPtv-112" value="" style="shape=rect;shadow=0;html=1;" vertex="1" parent="1">
          <mxGeometry x="-785.37" y="43.010000000000005" width="80" height="50" as="geometry" />
        </mxCell>
        <mxCell id="MSX6HTeKCzLweOMTaPtv-113" value="" style="verticalLabelPosition=bottom;html=1;verticalAlign=top;align=center;shape=mxgraph.floorplan.workstation;shadow=0;flipV=1;" vertex="1" parent="1">
          <mxGeometry x="-770.37" y="53.010000000000005" width="50" height="40" as="geometry" />
        </mxCell>
        <mxCell id="MSX6HTeKCzLweOMTaPtv-114" value="" style="verticalLabelPosition=bottom;html=1;verticalAlign=top;align=center;shape=mxgraph.floorplan.office_chair;shadow=0;" vertex="1" parent="1">
          <mxGeometry x="-581.37" y="23.010000000000005" width="40" height="43" as="geometry" />
        </mxCell>
        <mxCell id="MSX6HTeKCzLweOMTaPtv-115" value="" style="shape=rect;shadow=0;html=1;" vertex="1" parent="1">
          <mxGeometry x="-601.37" y="43.010000000000005" width="80" height="50" as="geometry" />
        </mxCell>
        <mxCell id="MSX6HTeKCzLweOMTaPtv-116" value="" style="verticalLabelPosition=bottom;html=1;verticalAlign=top;align=center;shape=mxgraph.floorplan.workstation;shadow=0;flipV=1;" vertex="1" parent="1">
          <mxGeometry x="-586.37" y="53.010000000000005" width="50" height="40" as="geometry" />
        </mxCell>
        <mxCell id="MSX6HTeKCzLweOMTaPtv-117" value="" style="verticalLabelPosition=bottom;html=1;verticalAlign=top;align=center;shape=mxgraph.floorplan.wall;fillColor=strokeColor;strokeColor=default;fontFamily=Helvetica;fontSize=12;fontColor=default;direction=south;" vertex="1" parent="1">
          <mxGeometry x="610" y="-719" width="10" height="149" as="geometry" />
        </mxCell>
        <mxCell id="MSX6HTeKCzLweOMTaPtv-118" value="" style="verticalLabelPosition=bottom;html=1;verticalAlign=top;align=center;shape=mxgraph.floorplan.wall;fillColor=strokeColor;direction=south;" vertex="1" parent="1">
          <mxGeometry x="776.5" y="-719" width="10" height="150" as="geometry" />
        </mxCell>
        <mxCell id="MSX6HTeKCzLweOMTaPtv-119" value="" style="verticalLabelPosition=bottom;html=1;verticalAlign=top;align=center;shape=mxgraph.floorplan.wall;fillColor=strokeColor;direction=south;" vertex="1" parent="1">
          <mxGeometry x="954.5" y="-719" width="10" height="149" as="geometry" />
        </mxCell>
        <mxCell id="MSX6HTeKCzLweOMTaPtv-120" value="" style="verticalLabelPosition=bottom;html=1;verticalAlign=top;align=center;shape=mxgraph.floorplan.wall;fillColor=strokeColor;strokeColor=default;fontFamily=Helvetica;fontSize=12;fontColor=default;direction=south;" vertex="1" parent="1">
          <mxGeometry x="610" y="-920" width="10" height="160" as="geometry" />
        </mxCell>
        <mxCell id="MSX6HTeKCzLweOMTaPtv-121" value="" style="verticalLabelPosition=bottom;html=1;verticalAlign=top;align=center;shape=mxgraph.floorplan.wall;fillColor=strokeColor;direction=south;" vertex="1" parent="1">
          <mxGeometry x="776.5" y="-920" width="10" height="160" as="geometry" />
        </mxCell>
        <mxCell id="MSX6HTeKCzLweOMTaPtv-122" value="" style="verticalLabelPosition=bottom;html=1;verticalAlign=top;align=center;shape=mxgraph.floorplan.wall;fillColor=strokeColor;direction=south;" vertex="1" parent="1">
          <mxGeometry x="954.5" y="-920" width="10" height="160" as="geometry" />
        </mxCell>
        <mxCell id="MSX6HTeKCzLweOMTaPtv-123" value="" style="verticalLabelPosition=bottom;html=1;verticalAlign=top;align=center;shape=mxgraph.floorplan.wall;fillColor=strokeColor;" vertex="1" parent="1">
          <mxGeometry x="610" y="-572" width="520" height="10" as="geometry" />
        </mxCell>
        <mxCell id="MSX6HTeKCzLweOMTaPtv-124" value="" style="verticalLabelPosition=bottom;html=1;verticalAlign=top;align=center;shape=mxgraph.floorplan.doorLeft;aspect=fixed;direction=east;" vertex="1" parent="1">
          <mxGeometry x="619.9949999999999" y="-719.005" width="38.13" height="40.5" as="geometry" />
        </mxCell>
        <mxCell id="MSX6HTeKCzLweOMTaPtv-125" value="" style="verticalLabelPosition=bottom;html=1;verticalAlign=top;align=center;shape=mxgraph.floorplan.doorLeft;aspect=fixed;direction=east;" vertex="1" parent="1">
          <mxGeometry x="786.505" y="-719.005" width="38.13" height="40.5" as="geometry" />
        </mxCell>
        <mxCell id="MSX6HTeKCzLweOMTaPtv-126" value="" style="verticalLabelPosition=bottom;html=1;verticalAlign=top;align=center;shape=mxgraph.floorplan.doorLeft;aspect=fixed;direction=east;" vertex="1" parent="1">
          <mxGeometry x="964.495" y="-719.005" width="38.13" height="40.5" as="geometry" />
        </mxCell>
        <mxCell id="MSX6HTeKCzLweOMTaPtv-127" value="" style="verticalLabelPosition=bottom;html=1;verticalAlign=top;align=center;shape=mxgraph.floorplan.doorRight;aspect=fixed;rotation=-180;direction=east;" vertex="1" parent="1">
          <mxGeometry x="620" y="-801.4300000000001" width="39" height="41.43" as="geometry" />
        </mxCell>
        <mxCell id="MSX6HTeKCzLweOMTaPtv-128" value="" style="verticalLabelPosition=bottom;html=1;verticalAlign=top;align=center;shape=mxgraph.floorplan.doorRight;aspect=fixed;rotation=-180;direction=east;" vertex="1" parent="1">
          <mxGeometry x="786.5" y="-801.4300000000001" width="39" height="41.43" as="geometry" />
        </mxCell>
        <mxCell id="MSX6HTeKCzLweOMTaPtv-129" value="" style="verticalLabelPosition=bottom;html=1;verticalAlign=top;align=center;shape=mxgraph.floorplan.doorRight;aspect=fixed;rotation=-180;direction=east;" vertex="1" parent="1">
          <mxGeometry x="965.5" y="-801.4300000000001" width="39" height="41.43" as="geometry" />
        </mxCell>
        <mxCell id="MSX6HTeKCzLweOMTaPtv-130" value="" style="verticalLabelPosition=bottom;html=1;verticalAlign=top;align=center;shape=mxgraph.floorplan.wall;fillColor=strokeColor;" vertex="1" parent="1">
          <mxGeometry x="659.5" y="-770" width="120" height="10" as="geometry" />
        </mxCell>
        <mxCell id="MSX6HTeKCzLweOMTaPtv-131" value="" style="verticalLabelPosition=bottom;html=1;verticalAlign=top;align=center;shape=mxgraph.floorplan.wall;fillColor=strokeColor;" vertex="1" parent="1">
          <mxGeometry x="658" y="-719.01" width="120" height="10" as="geometry" />
        </mxCell>
        <mxCell id="MSX6HTeKCzLweOMTaPtv-132" value="" style="verticalLabelPosition=bottom;html=1;verticalAlign=top;align=center;shape=mxgraph.floorplan.wall;fillColor=strokeColor;" vertex="1" parent="1">
          <mxGeometry x="825.5" y="-770" width="134" height="10" as="geometry" />
        </mxCell>
        <mxCell id="MSX6HTeKCzLweOMTaPtv-133" value="" style="verticalLabelPosition=bottom;html=1;verticalAlign=top;align=center;shape=mxgraph.floorplan.wall;fillColor=strokeColor;" vertex="1" parent="1">
          <mxGeometry x="824.64" y="-719.01" width="134" height="10" as="geometry" />
        </mxCell>
        <mxCell id="MSX6HTeKCzLweOMTaPtv-134" value="" style="verticalLabelPosition=bottom;html=1;verticalAlign=top;align=center;shape=mxgraph.floorplan.wall;fillColor=strokeColor;" vertex="1" parent="1">
          <mxGeometry x="1004.5" y="-770" width="134" height="10" as="geometry" />
        </mxCell>
        <mxCell id="MSX6HTeKCzLweOMTaPtv-135" value="" style="verticalLabelPosition=bottom;html=1;verticalAlign=top;align=center;shape=mxgraph.floorplan.wall;fillColor=strokeColor;" vertex="1" parent="1">
          <mxGeometry x="1002.62" y="-719" width="134" height="10" as="geometry" />
        </mxCell>
        <mxCell id="MSX6HTeKCzLweOMTaPtv-136" value="" style="verticalLabelPosition=bottom;html=1;verticalAlign=top;align=center;shape=mxgraph.floorplan.office_chair;shadow=0;" vertex="1" parent="1">
          <mxGeometry x="716.5" y="-920" width="40" height="43" as="geometry" />
        </mxCell>
        <mxCell id="MSX6HTeKCzLweOMTaPtv-137" value="" style="shape=rect;shadow=0;html=1;" vertex="1" parent="1">
          <mxGeometry x="696.5" y="-900" width="80" height="50" as="geometry" />
        </mxCell>
        <mxCell id="MSX6HTeKCzLweOMTaPtv-138" value="" style="verticalLabelPosition=bottom;html=1;verticalAlign=top;align=center;shape=mxgraph.floorplan.workstation;shadow=0;flipV=1;" vertex="1" parent="1">
          <mxGeometry x="711.5" y="-890" width="50" height="40" as="geometry" />
        </mxCell>
        <mxCell id="MSX6HTeKCzLweOMTaPtv-139" value="" style="verticalLabelPosition=bottom;html=1;verticalAlign=top;align=center;shape=mxgraph.floorplan.office_chair;shadow=0;" vertex="1" parent="1">
          <mxGeometry x="894.37" y="-920" width="40" height="43" as="geometry" />
        </mxCell>
        <mxCell id="MSX6HTeKCzLweOMTaPtv-140" value="" style="shape=rect;shadow=0;html=1;" vertex="1" parent="1">
          <mxGeometry x="874.37" y="-900" width="80" height="50" as="geometry" />
        </mxCell>
        <mxCell id="MSX6HTeKCzLweOMTaPtv-141" value="" style="verticalLabelPosition=bottom;html=1;verticalAlign=top;align=center;shape=mxgraph.floorplan.workstation;shadow=0;flipV=1;" vertex="1" parent="1">
          <mxGeometry x="889.37" y="-890" width="50" height="40" as="geometry" />
        </mxCell>
        <mxCell id="MSX6HTeKCzLweOMTaPtv-142" value="" style="verticalLabelPosition=bottom;html=1;verticalAlign=top;align=center;shape=mxgraph.floorplan.office_chair;shadow=0;" vertex="1" parent="1">
          <mxGeometry x="1068.5" y="-920" width="40" height="43" as="geometry" />
        </mxCell>
        <mxCell id="MSX6HTeKCzLweOMTaPtv-143" value="" style="shape=rect;shadow=0;html=1;" vertex="1" parent="1">
          <mxGeometry x="1048.5" y="-900" width="80" height="50" as="geometry" />
        </mxCell>
        <mxCell id="MSX6HTeKCzLweOMTaPtv-144" value="" style="verticalLabelPosition=bottom;html=1;verticalAlign=top;align=center;shape=mxgraph.floorplan.workstation;shadow=0;flipV=1;" vertex="1" parent="1">
          <mxGeometry x="1063.5" y="-890" width="50" height="40" as="geometry" />
        </mxCell>
        <mxCell id="MSX6HTeKCzLweOMTaPtv-145" value="" style="verticalLabelPosition=bottom;html=1;verticalAlign=top;align=center;shape=mxgraph.floorplan.office_chair;shadow=0;" vertex="1" parent="1">
          <mxGeometry x="716.5" y="-709.01" width="40" height="43" as="geometry" />
        </mxCell>
        <mxCell id="MSX6HTeKCzLweOMTaPtv-146" value="" style="shape=rect;shadow=0;html=1;" vertex="1" parent="1">
          <mxGeometry x="696.5" y="-689.01" width="80" height="50" as="geometry" />
        </mxCell>
        <mxCell id="MSX6HTeKCzLweOMTaPtv-147" value="" style="verticalLabelPosition=bottom;html=1;verticalAlign=top;align=center;shape=mxgraph.floorplan.workstation;shadow=0;flipV=1;" vertex="1" parent="1">
          <mxGeometry x="711.5" y="-679.01" width="50" height="40" as="geometry" />
        </mxCell>
        <mxCell id="MSX6HTeKCzLweOMTaPtv-148" value="" style="verticalLabelPosition=bottom;html=1;verticalAlign=top;align=center;shape=mxgraph.floorplan.office_chair;shadow=0;" vertex="1" parent="1">
          <mxGeometry x="894.5" y="-709" width="40" height="43" as="geometry" />
        </mxCell>
        <mxCell id="MSX6HTeKCzLweOMTaPtv-149" value="" style="shape=rect;shadow=0;html=1;" vertex="1" parent="1">
          <mxGeometry x="874.5" y="-689" width="80" height="50" as="geometry" />
        </mxCell>
        <mxCell id="MSX6HTeKCzLweOMTaPtv-150" value="" style="verticalLabelPosition=bottom;html=1;verticalAlign=top;align=center;shape=mxgraph.floorplan.workstation;shadow=0;flipV=1;" vertex="1" parent="1">
          <mxGeometry x="889.5" y="-679" width="50" height="40" as="geometry" />
        </mxCell>
        <mxCell id="MSX6HTeKCzLweOMTaPtv-151" value="" style="verticalLabelPosition=bottom;html=1;verticalAlign=top;align=center;shape=mxgraph.floorplan.office_chair;shadow=0;" vertex="1" parent="1">
          <mxGeometry x="1069.5" y="-709" width="40" height="43" as="geometry" />
        </mxCell>
        <mxCell id="MSX6HTeKCzLweOMTaPtv-152" value="" style="shape=rect;shadow=0;html=1;" vertex="1" parent="1">
          <mxGeometry x="1049.5" y="-689" width="80" height="50" as="geometry" />
        </mxCell>
        <mxCell id="MSX6HTeKCzLweOMTaPtv-153" value="" style="verticalLabelPosition=bottom;html=1;verticalAlign=top;align=center;shape=mxgraph.floorplan.workstation;shadow=0;flipV=1;" vertex="1" parent="1">
          <mxGeometry x="1064.5" y="-679" width="50" height="40" as="geometry" />
        </mxCell>
        <mxCell id="MSX6HTeKCzLweOMTaPtv-154" value="" style="verticalLabelPosition=bottom;html=1;verticalAlign=top;align=center;shape=mxgraph.floorplan.wall;fillColor=strokeColor;strokeColor=default;fontFamily=Helvetica;fontSize=12;fontColor=default;direction=south;" vertex="1" parent="1">
          <mxGeometry x="-520" y="13" width="10" height="150.01" as="geometry" />
        </mxCell>
        <mxCell id="MSX6HTeKCzLweOMTaPtv-155" value="" style="verticalLabelPosition=bottom;html=1;verticalAlign=top;align=center;shape=mxgraph.floorplan.wall;fillColor=strokeColor;direction=west;strokeColor=default;fontFamily=Helvetica;fontSize=12;fontColor=default;" vertex="1" parent="1">
          <mxGeometry x="-699" y="-261.5" width="180.75" height="10" as="geometry" />
        </mxCell>
        <mxCell id="MSX6HTeKCzLweOMTaPtv-156" value="" style="verticalLabelPosition=bottom;html=1;verticalAlign=top;align=center;shape=mxgraph.floorplan.wall;fillColor=strokeColor;direction=south;" vertex="1" parent="1">
          <mxGeometry x="-865.87" y="-261" width="10" height="120" as="geometry" />
        </mxCell>
        <mxCell id="MSX6HTeKCzLweOMTaPtv-157" value="" style="verticalLabelPosition=bottom;html=1;verticalAlign=top;align=center;shape=mxgraph.floorplan.wall;fillColor=strokeColor;direction=south;" vertex="1" parent="1">
          <mxGeometry x="-704.37" y="-261" width="10" height="121" as="geometry" />
        </mxCell>
        <mxCell id="MSX6HTeKCzLweOMTaPtv-166" value="" style="verticalLabelPosition=bottom;html=1;verticalAlign=top;align=center;shape=mxgraph.floorplan.wall;fillColor=strokeColor;" vertex="1" parent="1">
          <mxGeometry x="-1040" y="-419.38" width="174.13" height="8.76" as="geometry" />
        </mxCell>
        <mxCell id="MSX6HTeKCzLweOMTaPtv-167" value="" style="verticalLabelPosition=bottom;html=1;verticalAlign=top;align=center;shape=mxgraph.floorplan.wall;fillColor=strokeColor;direction=south;strokeColor=default;fontFamily=Helvetica;fontSize=12;fontColor=default;" vertex="1" parent="1">
          <mxGeometry x="-883.87" y="13.01" width="10" height="152.99" as="geometry" />
        </mxCell>
        <mxCell id="MSX6HTeKCzLweOMTaPtv-168" value="" style="verticalLabelPosition=bottom;html=1;verticalAlign=top;align=center;shape=mxgraph.floorplan.wall;fillColor=strokeColor;strokeColor=default;fontFamily=Helvetica;fontSize=12;fontColor=default;" vertex="1" parent="1">
          <mxGeometry x="-965.62" y="13" width="45.62" height="10" as="geometry" />
        </mxCell>
        <mxCell id="MSX6HTeKCzLweOMTaPtv-169" value="" style="verticalLabelPosition=bottom;html=1;verticalAlign=top;align=center;shape=mxgraph.floorplan.wall;fillColor=strokeColor;direction=south;strokeColor=default;fontFamily=Helvetica;fontSize=12;fontColor=default;" vertex="1" parent="1">
          <mxGeometry x="-965.87" y="23" width="10" height="137.01" as="geometry" />
        </mxCell>
        <mxCell id="MSX6HTeKCzLweOMTaPtv-170" value="" style="verticalLabelPosition=bottom;html=1;verticalAlign=top;align=center;shape=mxgraph.floorplan.doorRight;aspect=fixed;strokeColor=default;fontFamily=Helvetica;fontSize=12;fontColor=default;fillColor=default;" vertex="1" parent="1">
          <mxGeometry x="-920" y="13.01" width="36.14" height="38.4" as="geometry" />
        </mxCell>
        <mxCell id="MSX6HTeKCzLweOMTaPtv-171" value="" style="verticalLabelPosition=bottom;html=1;verticalAlign=top;align=center;shape=mxgraph.floorplan.toilet;strokeColor=default;fontFamily=Helvetica;fontSize=12;fontColor=default;fillColor=default;rotation=-90;direction=north;" vertex="1" parent="1">
          <mxGeometry x="-948.615" y="132.005" width="29.75" height="25" as="geometry" />
        </mxCell>
        <mxCell id="MSX6HTeKCzLweOMTaPtv-172" value="" style="verticalLabelPosition=bottom;html=1;verticalAlign=top;align=center;shape=mxgraph.floorplan.sink_1;direction=south;" vertex="1" parent="1">
          <mxGeometry x="-913.86" y="68.00999999999999" width="30" height="30" as="geometry" />
        </mxCell>
        <mxCell id="MSX6HTeKCzLweOMTaPtv-174" value="" style="verticalLabelPosition=bottom;html=1;verticalAlign=top;align=center;shape=mxgraph.floorplan.wall;fillColor=strokeColor;strokeColor=default;fontFamily=Helvetica;fontSize=12;fontColor=default;" vertex="1" parent="1">
          <mxGeometry x="-1050" y="13" width="50" height="10" as="geometry" />
        </mxCell>
        <mxCell id="MSX6HTeKCzLweOMTaPtv-176" value="" style="verticalLabelPosition=bottom;html=1;verticalAlign=top;align=center;shape=mxgraph.floorplan.doorRight;aspect=fixed;strokeColor=default;fontFamily=Helvetica;fontSize=12;fontColor=default;fillColor=default;" vertex="1" parent="1">
          <mxGeometry x="-1000" y="13" width="34.13" height="36.26" as="geometry" />
        </mxCell>
        <mxCell id="MSX6HTeKCzLweOMTaPtv-177" value="" style="verticalLabelPosition=bottom;html=1;verticalAlign=top;align=center;shape=mxgraph.floorplan.toilet;strokeColor=default;fontFamily=Helvetica;fontSize=12;fontColor=default;fillColor=default;rotation=-90;direction=north;" vertex="1" parent="1">
          <mxGeometry x="-1033.615" y="131.995" width="29.75" height="25" as="geometry" />
        </mxCell>
        <mxCell id="MSX6HTeKCzLweOMTaPtv-178" value="" style="verticalLabelPosition=bottom;html=1;verticalAlign=top;align=center;shape=mxgraph.floorplan.sink_1;direction=south;" vertex="1" parent="1">
          <mxGeometry x="-996.86" y="68" width="30" height="30" as="geometry" />
        </mxCell>
        <mxCell id="MSX6HTeKCzLweOMTaPtv-179" value="" style="verticalLabelPosition=bottom;html=1;verticalAlign=top;align=center;shape=mxgraph.floorplan.wall;fillColor=strokeColor;direction=south;strokeColor=default;fontFamily=Helvetica;fontSize=12;fontColor=default;" vertex="1" parent="1">
          <mxGeometry x="-800" y="260.01" width="10" height="152.99" as="geometry" />
        </mxCell>
        <mxCell id="MSX6HTeKCzLweOMTaPtv-180" value="" style="verticalLabelPosition=bottom;html=1;verticalAlign=top;align=center;shape=mxgraph.floorplan.wall;fillColor=strokeColor;strokeColor=default;fontFamily=Helvetica;fontSize=12;fontColor=default;" vertex="1" parent="1">
          <mxGeometry x="-890" y="260.01" width="50" height="10" as="geometry" />
        </mxCell>
        <mxCell id="MSX6HTeKCzLweOMTaPtv-181" value="" style="verticalLabelPosition=bottom;html=1;verticalAlign=top;align=center;shape=mxgraph.floorplan.wall;fillColor=strokeColor;direction=south;strokeColor=default;fontFamily=Helvetica;fontSize=12;fontColor=default;" vertex="1" parent="1">
          <mxGeometry x="-890" y="260.01" width="10" height="150" as="geometry" />
        </mxCell>
        <mxCell id="MSX6HTeKCzLweOMTaPtv-182" value="" style="verticalLabelPosition=bottom;html=1;verticalAlign=top;align=center;shape=mxgraph.floorplan.doorRight;aspect=fixed;strokeColor=default;fontFamily=Helvetica;fontSize=12;fontColor=default;fillColor=default;" vertex="1" parent="1">
          <mxGeometry x="-839.99" y="260.01" width="40" height="42.5" as="geometry" />
        </mxCell>
        <mxCell id="MSX6HTeKCzLweOMTaPtv-183" value="" style="verticalLabelPosition=bottom;html=1;verticalAlign=top;align=center;shape=mxgraph.floorplan.toilet;strokeColor=default;fontFamily=Helvetica;fontSize=12;fontColor=default;fillColor=default;rotation=-90;direction=north;" vertex="1" parent="1">
          <mxGeometry x="-859.745" y="385.005" width="29.75" height="25" as="geometry" />
        </mxCell>
        <mxCell id="MSX6HTeKCzLweOMTaPtv-184" value="" style="verticalLabelPosition=bottom;html=1;verticalAlign=top;align=center;shape=mxgraph.floorplan.sink_1;direction=south;" vertex="1" parent="1">
          <mxGeometry x="-829.99" y="321.01" width="30" height="30" as="geometry" />
        </mxCell>
        <mxCell id="MSX6HTeKCzLweOMTaPtv-185" value="" style="verticalLabelPosition=bottom;html=1;verticalAlign=top;align=center;shape=mxgraph.floorplan.wall;fillColor=strokeColor;direction=south;strokeColor=default;fontFamily=Helvetica;fontSize=12;fontColor=default;" vertex="1" parent="1">
          <mxGeometry x="-890" y="261" width="10" height="152" as="geometry" />
        </mxCell>
        <mxCell id="MSX6HTeKCzLweOMTaPtv-186" value="" style="verticalLabelPosition=bottom;html=1;verticalAlign=top;align=center;shape=mxgraph.floorplan.wall;fillColor=strokeColor;strokeColor=default;fontFamily=Helvetica;fontSize=12;fontColor=default;" vertex="1" parent="1">
          <mxGeometry x="-979.9999999999999" y="260" width="50" height="10" as="geometry" />
        </mxCell>
        <mxCell id="MSX6HTeKCzLweOMTaPtv-187" value="" style="verticalLabelPosition=bottom;html=1;verticalAlign=top;align=center;shape=mxgraph.floorplan.wall;fillColor=strokeColor;direction=south;strokeColor=default;fontFamily=Helvetica;fontSize=12;fontColor=default;" vertex="1" parent="1">
          <mxGeometry x="-979.9999999999999" y="260" width="10" height="150" as="geometry" />
        </mxCell>
        <mxCell id="MSX6HTeKCzLweOMTaPtv-188" value="" style="verticalLabelPosition=bottom;html=1;verticalAlign=top;align=center;shape=mxgraph.floorplan.doorRight;aspect=fixed;strokeColor=default;fontFamily=Helvetica;fontSize=12;fontColor=default;fillColor=default;" vertex="1" parent="1">
          <mxGeometry x="-929.99" y="260" width="40" height="42.5" as="geometry" />
        </mxCell>
        <mxCell id="MSX6HTeKCzLweOMTaPtv-189" value="" style="verticalLabelPosition=bottom;html=1;verticalAlign=top;align=center;shape=mxgraph.floorplan.toilet;strokeColor=default;fontFamily=Helvetica;fontSize=12;fontColor=default;fillColor=default;rotation=-90;direction=north;" vertex="1" parent="1">
          <mxGeometry x="-949.745" y="384.995" width="29.75" height="25" as="geometry" />
        </mxCell>
        <mxCell id="MSX6HTeKCzLweOMTaPtv-190" value="" style="verticalLabelPosition=bottom;html=1;verticalAlign=top;align=center;shape=mxgraph.floorplan.sink_1;direction=south;" vertex="1" parent="1">
          <mxGeometry x="-919.99" y="321" width="30" height="30" as="geometry" />
        </mxCell>
        <mxCell id="MSX6HTeKCzLweOMTaPtv-192" value="" style="verticalLabelPosition=bottom;html=1;verticalAlign=top;align=center;shape=mxgraph.floorplan.doorLeft;aspect=fixed;direction=north;" vertex="1" parent="1">
          <mxGeometry x="-704.3699999999999" y="-139.5" width="41.23" height="38.82" as="geometry" />
        </mxCell>
        <mxCell id="MSX6HTeKCzLweOMTaPtv-193" value="" style="verticalLabelPosition=bottom;html=1;verticalAlign=top;align=center;shape=mxgraph.floorplan.wall;fillColor=strokeColor;" vertex="1" parent="1">
          <mxGeometry x="-704.37" y="-100.68" width="194.37" height="10" as="geometry" />
        </mxCell>
        <mxCell id="MSX6HTeKCzLweOMTaPtv-194" value="" style="verticalLabelPosition=bottom;html=1;verticalAlign=top;align=center;shape=mxgraph.floorplan.wall;fillColor=strokeColor;" vertex="1" parent="1">
          <mxGeometry x="213.5" y="-380.25" width="100" height="10" as="geometry" />
        </mxCell>
        <mxCell id="MSX6HTeKCzLweOMTaPtv-195" value="" style="verticalLabelPosition=bottom;html=1;verticalAlign=top;align=center;shape=mxgraph.floorplan.wall;fillColor=strokeColor;" vertex="1" parent="1">
          <mxGeometry x="-455" y="-452" width="620" height="10" as="geometry" />
        </mxCell>
        <mxCell id="MSX6HTeKCzLweOMTaPtv-197" value="" style="verticalLabelPosition=bottom;html=1;verticalAlign=top;align=center;shape=mxgraph.floorplan.wall;fillColor=strokeColor;strokeColor=default;fontFamily=Helvetica;fontSize=12;fontColor=default;" vertex="1" parent="1">
          <mxGeometry x="-519.25" y="-452" width="25" height="10" as="geometry" />
        </mxCell>
        <mxCell id="MSX6HTeKCzLweOMTaPtv-205" value="" style="verticalLabelPosition=bottom;html=1;verticalAlign=top;align=center;shape=mxgraph.floorplan.sink_double2;direction=west;" vertex="1" parent="1">
          <mxGeometry x="-340" y="-488.13" width="80" height="35" as="geometry" />
        </mxCell>
        <mxCell id="MSX6HTeKCzLweOMTaPtv-206" value="" style="verticalLabelPosition=bottom;html=1;verticalAlign=top;align=center;shape=mxgraph.floorplan.refrigerator;direction=west;" vertex="1" parent="1">
          <mxGeometry x="-245" y="-514" width="60" height="62" as="geometry" />
        </mxCell>
        <mxCell id="MSX6HTeKCzLweOMTaPtv-207" value="" style="verticalLabelPosition=bottom;html=1;verticalAlign=top;align=center;shape=mxgraph.floorplan.wall;fillColor=strokeColor;direction=south;" vertex="1" parent="1">
          <mxGeometry x="-171" y="-660" width="10" height="208" as="geometry" />
        </mxCell>
        <mxCell id="MSX6HTeKCzLweOMTaPtv-208" value="" style="verticalLabelPosition=bottom;html=1;verticalAlign=top;align=center;shape=mxgraph.floorplan.chair;shadow=0;" vertex="1" parent="1">
          <mxGeometry x="-390" y="-689" width="40" height="52" as="geometry" />
        </mxCell>
        <mxCell id="MSX6HTeKCzLweOMTaPtv-209" value="" style="verticalLabelPosition=bottom;html=1;verticalAlign=top;align=center;shape=mxgraph.floorplan.chair;shadow=0;direction=west;" vertex="1" parent="1">
          <mxGeometry x="-390" y="-601" width="40" height="52" as="geometry" />
        </mxCell>
        <mxCell id="MSX6HTeKCzLweOMTaPtv-210" value="" style="verticalLabelPosition=bottom;html=1;verticalAlign=top;align=center;shape=mxgraph.floorplan.chair;shadow=0;direction=north;" vertex="1" parent="1">
          <mxGeometry x="-440" y="-639" width="52" height="40" as="geometry" />
        </mxCell>
        <mxCell id="MSX6HTeKCzLweOMTaPtv-211" value="" style="verticalLabelPosition=bottom;html=1;verticalAlign=top;align=center;shape=mxgraph.floorplan.chair;shadow=0;direction=south" vertex="1" parent="1">
          <mxGeometry x="-292" y="-639" width="52" height="40" as="geometry" />
        </mxCell>
        <mxCell id="MSX6HTeKCzLweOMTaPtv-212" value="" style="verticalLabelPosition=bottom;html=1;verticalAlign=top;align=center;shape=mxgraph.floorplan.chair;shadow=0;" vertex="1" parent="1">
          <mxGeometry x="-330" y="-689" width="40" height="52" as="geometry" />
        </mxCell>
        <mxCell id="MSX6HTeKCzLweOMTaPtv-213" value="" style="verticalLabelPosition=bottom;html=1;verticalAlign=top;align=center;shape=mxgraph.floorplan.chair;shadow=0;direction=west;" vertex="1" parent="1">
          <mxGeometry x="-330" y="-601" width="40" height="52" as="geometry" />
        </mxCell>
        <mxCell id="MSX6HTeKCzLweOMTaPtv-214" value="" style="shape=rect;shadow=0;html=1;" vertex="1" parent="1">
          <mxGeometry x="-420" y="-669" width="160" height="100" as="geometry" />
        </mxCell>
        <mxCell id="MSX6HTeKCzLweOMTaPtv-216" value="" style="verticalLabelPosition=bottom;html=1;verticalAlign=top;align=center;shape=mxgraph.floorplan.plant;strokeColor=#82b366;fontFamily=Helvetica;fontSize=12;fillColor=#d5e8d4;" vertex="1" parent="1">
          <mxGeometry x="-502" y="-791.22" width="25" height="25" as="geometry" />
        </mxCell>
        <mxCell id="MSX6HTeKCzLweOMTaPtv-217" value="" style="verticalLabelPosition=bottom;html=1;verticalAlign=top;align=center;shape=mxgraph.floorplan.plant;strokeColor=#82b366;fontFamily=Helvetica;fontSize=12;fillColor=#d5e8d4;" vertex="1" parent="1">
          <mxGeometry x="-1028.6100000000001" y="-54" width="25" height="25" as="geometry" />
        </mxCell>
        <mxCell id="MSX6HTeKCzLweOMTaPtv-238" value="" style="verticalLabelPosition=bottom;html=1;verticalAlign=top;align=center;shape=mxgraph.floorplan.dresser;" vertex="1" parent="1">
          <mxGeometry x="-449" y="-799.5" width="100" height="65" as="geometry" />
        </mxCell>
        <mxCell id="MSX6HTeKCzLweOMTaPtv-239" value="" style="verticalLabelPosition=bottom;html=1;verticalAlign=top;align=center;shape=mxgraph.floorplan.dresser;" vertex="1" parent="1">
          <mxGeometry x="-329" y="-800.43" width="100" height="65" as="geometry" />
        </mxCell>
        <mxCell id="MSX6HTeKCzLweOMTaPtv-240" value="" style="verticalLabelPosition=bottom;html=1;verticalAlign=top;align=center;shape=mxgraph.floorplan.plant;strokeColor=#82b366;fontFamily=Helvetica;fontSize=12;fillColor=#d5e8d4;" vertex="1" parent="1">
          <mxGeometry x="-207.5" y="-791.22" width="25" height="25" as="geometry" />
        </mxCell>
        <mxCell id="MSX6HTeKCzLweOMTaPtv-241" value="" style="verticalLabelPosition=bottom;html=1;verticalAlign=top;align=center;shape=mxgraph.floorplan.doorRight;aspect=fixed;strokeColor=default;fontFamily=Helvetica;fontSize=12;fontColor=default;fillColor=default;rotation=-90;" vertex="1" parent="1">
          <mxGeometry x="-169.98" y="-700.45" width="39.01" height="41.46" as="geometry" />
        </mxCell>
        <mxCell id="MSX6HTeKCzLweOMTaPtv-242" value="" style="verticalLabelPosition=bottom;html=1;verticalAlign=top;align=center;shape=mxgraph.floorplan.wall;fillColor=strokeColor;direction=south;" vertex="1" parent="1">
          <mxGeometry x="-170.94" y="-800" width="10" height="100" as="geometry" />
        </mxCell>
        <mxCell id="MSX6HTeKCzLweOMTaPtv-244" value="" style="verticalLabelPosition=bottom;html=1;verticalAlign=top;align=center;shape=mxgraph.floorplan.office_chair;shadow=0;direction=west;" vertex="1" parent="1">
          <mxGeometry x="3" y="-773.0000000000001" width="40" height="43" as="geometry" />
        </mxCell>
        <mxCell id="MSX6HTeKCzLweOMTaPtv-245" value="" style="shape=rect;shadow=0;html=1;" vertex="1" parent="1">
          <mxGeometry x="-18" y="-799.4300000000001" width="80" height="50" as="geometry" />
        </mxCell>
        <mxCell id="MSX6HTeKCzLweOMTaPtv-246" value="" style="verticalLabelPosition=bottom;html=1;verticalAlign=top;align=center;shape=mxgraph.floorplan.office_chair;shadow=0;direction=west;" vertex="1" parent="1">
          <mxGeometry x="-119.63999999999999" y="-773.0000000000001" width="40" height="43" as="geometry" />
        </mxCell>
        <mxCell id="MSX6HTeKCzLweOMTaPtv-247" value="" style="shape=rect;shadow=0;html=1;" vertex="1" parent="1">
          <mxGeometry x="-140.64" y="-799.4300000000001" width="80" height="50" as="geometry" />
        </mxCell>
        <mxCell id="MSX6HTeKCzLweOMTaPtv-248" value="" style="verticalLabelPosition=bottom;html=1;verticalAlign=top;align=center;shape=mxgraph.floorplan.plant;strokeColor=#82b366;fontFamily=Helvetica;fontSize=12;fillColor=#d5e8d4;" vertex="1" parent="1">
          <mxGeometry x="-53" y="-795.21" width="25" height="25" as="geometry" />
        </mxCell>
        <mxCell id="MSX6HTeKCzLweOMTaPtv-249" value="" style="verticalLabelPosition=bottom;html=1;verticalAlign=top;align=center;shape=mxgraph.floorplan.workstation;" vertex="1" parent="1">
          <mxGeometry x="-124.64" y="-797.21" width="50" height="40" as="geometry" />
        </mxCell>
        <mxCell id="MSX6HTeKCzLweOMTaPtv-250" value="" style="verticalLabelPosition=bottom;html=1;verticalAlign=top;align=center;shape=mxgraph.floorplan.workstation;" vertex="1" parent="1">
          <mxGeometry x="-2" y="-797.21" width="50" height="40" as="geometry" />
        </mxCell>
        <mxCell id="MSX6HTeKCzLweOMTaPtv-251" value="" style="verticalLabelPosition=bottom;html=1;verticalAlign=top;align=center;shape=mxgraph.floorplan.wall;fillColor=strokeColor;" vertex="1" parent="1">
          <mxGeometry x="-161" y="-660" width="281" height="10" as="geometry" />
        </mxCell>
        <mxCell id="MSX6HTeKCzLweOMTaPtv-252" value="" style="verticalLabelPosition=bottom;html=1;verticalAlign=top;align=center;shape=mxgraph.floorplan.dresser;direction=east;" vertex="1" parent="1">
          <mxGeometry x="73.5" y="-797.21" width="79.5" height="49.5" as="geometry" />
        </mxCell>
        <mxCell id="MSX6HTeKCzLweOMTaPtv-253" value="" style="verticalLabelPosition=bottom;html=1;verticalAlign=top;align=center;shape=mxgraph.floorplan.copier;direction=east;" vertex="1" parent="1">
          <mxGeometry x="88.25" y="-791.96" width="50" height="29.5" as="geometry" />
        </mxCell>
        <mxCell id="MSX6HTeKCzLweOMTaPtv-254" value="" style="verticalLabelPosition=bottom;html=1;verticalAlign=top;align=center;shape=mxgraph.floorplan.doorRight;aspect=fixed;strokeColor=default;fontFamily=Helvetica;fontSize=12;fontColor=default;fillColor=default;rotation=-90;direction=south;" vertex="1" parent="1">
          <mxGeometry x="119.26500000000006" y="-658.995" width="41.46" height="39.01" as="geometry" />
        </mxCell>
        <mxCell id="MSX6HTeKCzLweOMTaPtv-255" value="" style="verticalLabelPosition=bottom;html=1;verticalAlign=top;align=center;shape=mxgraph.floorplan.doorRight;aspect=fixed;strokeColor=default;fontFamily=Helvetica;fontSize=12;fontColor=default;fillColor=default;rotation=-90;direction=north;" vertex="1" parent="1">
          <mxGeometry x="-495.475" y="-482.235" width="41.46" height="39.01" as="geometry" />
        </mxCell>
        <mxCell id="MSX6HTeKCzLweOMTaPtv-258" value="" style="verticalLabelPosition=bottom;html=1;verticalAlign=top;align=center;shape=mxgraph.floorplan.range_1;direction=west;" vertex="1" parent="1">
          <mxGeometry x="-400" y="-510" width="45" height="58" as="geometry" />
        </mxCell>
        <mxCell id="MSX6HTeKCzLweOMTaPtv-273" value="" style="verticalLabelPosition=bottom;html=1;verticalAlign=top;align=center;shape=mxgraph.floorplan.plant;strokeColor=#82b366;fontFamily=Helvetica;fontSize=12;fillColor=#d5e8d4;" vertex="1" parent="1">
          <mxGeometry x="-150" y="-640.01" width="25" height="25" as="geometry" />
        </mxCell>
        <mxCell id="MSX6HTeKCzLweOMTaPtv-274" value="" style="verticalLabelPosition=bottom;html=1;verticalAlign=top;align=center;shape=mxgraph.floorplan.plant;strokeColor=#82b366;fontFamily=Helvetica;fontSize=12;fillColor=#d5e8d4;" vertex="1" parent="1">
          <mxGeometry x="-150.64" y="-487.63" width="25" height="25" as="geometry" />
        </mxCell>
        <mxCell id="MSX6HTeKCzLweOMTaPtv-275" value="" style="verticalLabelPosition=bottom;html=1;verticalAlign=top;align=center;shape=mxgraph.floorplan.office_chair;shadow=0;" vertex="1" parent="1">
          <mxGeometry x="-69.97" y="-622.24" width="40" height="43" as="geometry" />
        </mxCell>
        <mxCell id="MSX6HTeKCzLweOMTaPtv-276" value="" style="verticalLabelPosition=bottom;html=1;verticalAlign=top;align=center;shape=mxgraph.floorplan.office_chair;shadow=0;direction=west;" vertex="1" parent="1">
          <mxGeometry x="-69.97" y="-525.24" width="40" height="43" as="geometry" />
        </mxCell>
        <mxCell id="MSX6HTeKCzLweOMTaPtv-277" value="" style="verticalLabelPosition=bottom;html=1;verticalAlign=top;align=center;shape=mxgraph.floorplan.office_chair;shadow=0;direction=north;" vertex="1" parent="1">
          <mxGeometry x="-119.97" y="-572.24" width="43" height="40" as="geometry" />
        </mxCell>
        <mxCell id="MSX6HTeKCzLweOMTaPtv-278" value="" style="verticalLabelPosition=bottom;html=1;verticalAlign=top;align=center;shape=mxgraph.floorplan.office_chair;shadow=0;direction=south" vertex="1" parent="1">
          <mxGeometry x="37.03" y="-572.24" width="43" height="40" as="geometry" />
        </mxCell>
        <mxCell id="MSX6HTeKCzLweOMTaPtv-279" value="" style="verticalLabelPosition=bottom;html=1;verticalAlign=top;align=center;shape=mxgraph.floorplan.office_chair;shadow=0;" vertex="1" parent="1">
          <mxGeometry x="-9.969999999999999" y="-622.24" width="40" height="43" as="geometry" />
        </mxCell>
        <mxCell id="MSX6HTeKCzLweOMTaPtv-280" value="" style="verticalLabelPosition=bottom;html=1;verticalAlign=top;align=center;shape=mxgraph.floorplan.office_chair;shadow=0;direction=west;" vertex="1" parent="1">
          <mxGeometry x="-9.969999999999999" y="-525.24" width="40" height="43" as="geometry" />
        </mxCell>
        <mxCell id="MSX6HTeKCzLweOMTaPtv-281" value="" style="shape=ellipse;shadow=0;html=1;" vertex="1" parent="1">
          <mxGeometry x="-99.97" y="-602.24" width="160" height="100" as="geometry" />
        </mxCell>
        <mxCell id="MSX6HTeKCzLweOMTaPtv-283" value="" style="verticalLabelPosition=bottom;html=1;verticalAlign=top;align=center;shape=mxgraph.floorplan.flat_tv;direction=north;" vertex="1" parent="1">
          <mxGeometry x="-160.64" y="-587.24" width="10" height="70" as="geometry" />
        </mxCell>
      </root>
    </mxGraphModel>
  </diagram>
</mxfile>
